<svg width="80" height="80" viewBox="0 0 80 80" fill="none" xmlns="http://www.w3.org/2000/svg">
    <circle cx="40" cy="40" r="36" stroke="url(#ringGradient)" stroke-width="2" fill="none" opacity="0.6"/>
    <circle cx="40" cy="40" r="28" stroke="url(#innerGradient)" stroke-width="1.5" fill="none" opacity="0.4"/>
    <path d="M 25 25 A 8 8 0 0 1 25 35 A 8 8 0 0 1 25 25 Z" fill="url(#moonGradient)" opacity="0.9"/>
    <circle cx="28" cy="30" r="6" fill="url(#bgGradient)"/>
    <g transform="translate(40, 40)">
        <path d="M 0 -18 L 4 -6 L 16 -6 L 6 2 L 10 14 L 0 8 L -10 14 L -6 2 L -16 -6 L -4 -6 Z" fill="url(#starGradient)"/>
        <path d="M 0 -12 L 3 -4 L 12 -4 L 4 1 L 7 10 L 0 5 L -7 10 L -4 1 L -12 -4 L -3 -4 Z" fill="url(#starInner)" opacity="0.8"/>
    </g>
    <circle cx="55" cy="20" r="2" fill="url(#starGradient)" opacity="0.8"/>
    <circle cx="60" cy="55" r="1.5" fill="url(#starGradient)" opacity="0.7"/>
    <circle cx="20" cy="60" r="1.5" fill="url(#starGradient)" opacity="0.6"/>
    <circle cx="40" cy="8" r="1.5" fill="url(#accentGradient)" opacity="0.6"/>
    <circle cx="72" cy="40" r="1.5" fill="url(#accentGradient)" opacity="0.6"/>
    <circle cx="40" cy="72" r="1.5" fill="url(#accentGradient)" opacity="0.6"/>
    <circle cx="8" cy="40" r="1.5" fill="url(#accentGradient)" opacity="0.6"/>
    <defs>
        <linearGradient id="ringGradient" x1="0%" y1="0%" x2="100%" y2="100%">
            <stop offset="0%" stop-color="#8B5CF6" stop-opacity="0.8"/>
            <stop offset="50%" stop-color="#EC4899" stop-opacity="0.6"/>
            <stop offset="100%" stop-color="#8B5CF6" stop-opacity="0.8"/>
        </linearGradient>
        <linearGradient id="innerGradient" x1="0%" y1="0%" x2="100%" y2="100%">
            <stop offset="0%" stop-color="#A78BFA" stop-opacity="0.5"/>
            <stop offset="100%" stop-color="#F472B6" stop-opacity="0.3"/>
        </linearGradient>
        <linearGradient id="moonGradient" x1="0%" y1="0%" x2="100%" y2="100%">
            <stop offset="0%" stop-color="#FBBF24"/>
            <stop offset="100%" stop-color="#F59E0B"/>
        </linearGradient>
        <linearGradient id="bgGradient" x1="0%" y1="0%" x2="100%" y2="100%">
            <stop offset="0%" stop-color="#1E1B4B"/>
            <stop offset="100%" stop-color="#312E81"/>
        </linearGradient>
        <linearGradient id="starGradient" x1="0%" y1="0%" x2="100%" y2="100%">
            <stop offset="0%" stop-color="#A855F7"/>
            <stop offset="50%" stop-color="#EC4899"/>
            <stop offset="100%" stop-color="#F472B6"/>
        </linearGradient>
        <linearGradient id="starInner" x1="0%" y1="0%" x2="100%" y2="100%">
            <stop offset="0%" stop-color="#C084FC"/>
            <stop offset="100%" stop-color="#F0ABFC"/>
        </linearGradient>
        <linearGradient id="accentGradient" x1="0%" y1="0%" x2="100%" y2="100%">
            <stop offset="0%" stop-color="#818CF8"/>
            <stop offset="100%" stop-color="#EC4899"/>
        </linearGradient>
    </defs>
</svg>
